<svg width="35" height="35" viewBox="0 0 35 35" fill="none" xmlns="http://www.w3.org/2000/svg">
<path fill-rule="evenodd" clip-rule="evenodd" d="M0.9375 17.5C0.936835 13.8945 2.11275 10.3872 4.2867 7.51071C6.46064 4.63425 9.51386 2.54577 12.9827 1.56238C16.4516 0.578995 20.1466 0.75443 23.5067 2.06205C26.8668 3.36966 29.7084 5.73803 31.6 8.80751C31.6866 8.94731 31.7447 9.10281 31.771 9.2651C31.7974 9.4274 31.7915 9.5933 31.7536 9.75331C31.7158 9.91332 31.6467 10.0643 31.5504 10.1976C31.4542 10.3308 31.3325 10.4438 31.1925 10.53L19.8825 17.5L31.1925 24.47C31.3325 24.5562 31.4542 24.6692 31.5504 24.8025C31.6467 24.9357 31.7158 25.0867 31.7536 25.2467C31.7915 25.4067 31.7974 25.5726 31.771 25.7349C31.7447 25.8972 31.6866 26.0527 31.6 26.1925C29.7084 29.262 26.8668 31.6304 23.5067 32.938C20.1466 34.2456 16.4516 34.421 12.9827 33.4376C9.51386 32.4543 6.46064 30.3658 4.2867 27.4893C2.11275 24.6129 0.936835 21.1056 0.9375 17.5ZM15 12.5C15.663 12.5 16.2989 12.2366 16.7678 11.7678C17.2366 11.2989 17.5 10.6631 17.5 10C17.5 9.33697 17.2366 8.70108 16.7678 8.23224C16.2989 7.7634 15.663 7.50001 15 7.50001C14.337 7.50001 13.7011 7.7634 13.2322 8.23224C12.7634 8.70108 12.5 9.33697 12.5 10C12.5 10.6631 12.7634 11.2989 13.2322 11.7678C13.7011 12.2366 14.337 12.5 15 12.5Z" fill="#107C10"/>
</svg>
