<svg viewBox="0 0 35 35" fill="none" xmlns="http://www.w3.org/2000/svg" class="icon icon-catalog">
    <path d="M9.47917 16.0416L17.5 2.91663L25.5208 16.0416H9.47917ZM25.5208 32.0833C23.6979 32.0833 22.1487 31.4455 20.8731 30.17C19.5976 28.8944 18.9593 27.3447 18.9583 25.5208C18.9574 23.6969 19.5956 22.1477 20.8731 20.8731C22.1506 19.5985 23.6999 18.9602 25.5208 18.9583C27.3418 18.9563 28.8915 19.5946 30.17 20.8731C31.4485 22.1516 32.0862 23.7008 32.0833 25.5208C32.0804 27.3408 31.4426 28.8905 30.17 30.17C28.8974 31.4494 27.3476 32.0872 25.5208 32.0833ZM4.375 31.3541V19.6875H16.0417V31.3541H4.375Z" fill="#B8ADB7"/>
</svg>  