<svg viewBox="0 0 35 35" fill="none" xmlns="http://www.w3.org/2000/svg" class="icon icon-catalog">
    <path d="M7.875 3.5C7.64294 3.5 7.42038 3.59219 7.25628 3.75628C7.09219 3.92038 7 4.14294 7 4.375V30.625C7 30.8571 7.09219 31.0796 7.25628 31.2437C7.42038 31.4078 7.64294 31.5 7.875 31.5H12.25V16.625C12.25 16.3929 12.3422 16.1704 12.5063 16.0063C12.6704 15.8422 12.8929 15.75 13.125 15.75C13.3571 15.75 13.5796 15.8422 13.7437 16.0063C13.9078 16.1704 14 16.3929 14 16.625V31.5H27.125C27.3571 31.5 27.5796 31.4078 27.7437 31.2437C27.9078 31.0796 28 30.8571 28 30.625V4.375C28 4.14294 27.9078 3.92038 27.7437 3.75628C27.5796 3.59219 27.3571 3.5 27.125 3.5H7.875ZM13.125 11.375C12.7769 11.375 12.4431 11.2367 12.1969 10.9906C11.9508 10.7444 11.8125 10.4106 11.8125 10.0625C11.8125 9.7144 11.9508 9.38056 12.1969 9.13442C12.4431 8.88828 12.7769 8.75 13.125 8.75C13.4731 8.75 13.8069 8.88828 14.0531 9.13442C14.2992 9.38056 14.4375 9.7144 14.4375 10.0625C14.4375 10.4106 14.2992 10.7444 14.0531 10.9906C13.8069 11.2367 13.4731 11.375 13.125 11.375Z" fill="#B8ADB7"/>
</svg>     