<svg viewBox="0 0 35 35" fill="none" xmlns="http://www.w3.org/2000/svg" class="icon icon-catalog">
    <path d="M27.198 4.15635L28.0876 9.78551L33.2064 12.3959L30.6251 17.5001L33.221 22.6043L28.0585 25.2147L27.1689 30.8438L21.496 29.9543L17.4564 33.9793L13.4022 29.8959L7.77305 30.8293L6.86888 25.1563L1.7793 22.5605L4.37513 17.4563L1.79388 12.3959L6.91263 9.75635L7.80221 4.17093L13.446 5.10426L17.5001 1.00635L21.5397 5.04593L27.198 4.15635ZM13.8543 10.2084C13.2741 10.2084 12.7177 10.4389 12.3075 10.8491C11.8973 11.2594 11.6668 11.8158 11.6668 12.3959C11.6668 12.9761 11.8973 13.5325 12.3075 13.9427C12.7177 14.353 13.2741 14.5834 13.8543 14.5834C14.4345 14.5834 14.9909 14.353 15.4011 13.9427C15.8113 13.5325 16.0418 12.9761 16.0418 12.3959C16.0418 11.8158 15.8113 11.2594 15.4011 10.8491C14.9909 10.4389 14.4345 10.2084 13.8543 10.2084ZM21.146 20.4168C20.5658 20.4168 20.0094 20.6472 19.5992 21.0575C19.1889 21.4677 18.9585 22.0241 18.9585 22.6043C18.9585 23.1844 19.1889 23.7408 19.5992 24.1511C20.0094 24.5613 20.5658 24.7918 21.146 24.7918C21.7261 24.7918 22.2825 24.5613 22.6928 24.1511C23.103 23.7408 23.3335 23.1844 23.3335 22.6043C23.3335 22.0241 23.103 21.4677 22.6928 21.0575C22.2825 20.6472 21.7261 20.4168 21.146 20.4168ZM12.2647 24.7918L24.7918 12.2647L22.7355 10.2084L10.2085 22.7355L12.2647 24.7918Z" fill="#B8ADB7"/>
</svg> 